<svg width="17" height="19" viewBox="0 0 17 19" fill="none" xmlns="http://www.w3.org/2000/svg">
<g clip-path="url(#clip0_748_1460)">
<path d="M4.76123 0.000488281C5.38869 0.000488281 5.89563 0.507423 5.89563 1.13489V2.26929H10.4332V1.13489C10.4332 0.507423 10.9402 0.000488281 11.5676 0.000488281C12.1951 0.000488281 12.702 0.507423 12.702 1.13489V2.26929H14.4036C15.343 2.26929 16.1052 3.03146 16.1052 3.97088V5.67248H0.223633V3.97088C0.223633 3.03146 0.985807 2.26929 1.92523 2.26929H3.62683V1.13489C3.62683 0.507423 4.13376 0.000488281 4.76123 0.000488281ZM0.223633 6.80688H16.1052V16.4493C16.1052 17.3887 15.343 18.1509 14.4036 18.1509H1.92523C0.985807 18.1509 0.223633 17.3887 0.223633 16.4493V6.80688ZM2.49243 9.64288V10.7773C2.49243 11.0892 2.74767 11.3445 3.05963 11.3445H4.19403C4.50599 11.3445 4.76123 11.0892 4.76123 10.7773V9.64288C4.76123 9.33092 4.50599 9.07568 4.19403 9.07568H3.05963C2.74767 9.07568 2.49243 9.33092 2.49243 9.64288ZM7.03002 9.64288V10.7773C7.03002 11.0892 7.28526 11.3445 7.59722 11.3445H8.73162C9.04358 11.3445 9.29882 11.0892 9.29882 10.7773V9.64288C9.29882 9.33092 9.04358 9.07568 8.73162 9.07568H7.59722C7.28526 9.07568 7.03002 9.33092 7.03002 9.64288ZM12.1348 9.07568C11.8229 9.07568 11.5676 9.33092 11.5676 9.64288V10.7773C11.5676 11.0892 11.8229 11.3445 12.1348 11.3445H13.2692C13.5812 11.3445 13.8364 11.0892 13.8364 10.7773V9.64288C13.8364 9.33092 13.5812 9.07568 13.2692 9.07568H12.1348ZM2.49243 14.1805V15.3149C2.49243 15.6268 2.74767 15.8821 3.05963 15.8821H4.19403C4.50599 15.8821 4.76123 15.6268 4.76123 15.3149V14.1805C4.76123 13.8685 4.50599 13.6133 4.19403 13.6133H3.05963C2.74767 13.6133 2.49243 13.8685 2.49243 14.1805ZM7.59722 13.6133C7.28526 13.6133 7.03002 13.8685 7.03002 14.1805V15.3149C7.03002 15.6268 7.28526 15.8821 7.59722 15.8821H8.73162C9.04358 15.8821 9.29882 15.6268 9.29882 15.3149V14.1805C9.29882 13.8685 9.04358 13.6133 8.73162 13.6133H7.59722ZM11.5676 14.1805V15.3149C11.5676 15.6268 11.8229 15.8821 12.1348 15.8821H13.2692C13.5812 15.8821 13.8364 15.6268 13.8364 15.3149V14.1805C13.8364 13.8685 13.5812 13.6133 13.2692 13.6133H12.1348C11.8229 13.6133 11.5676 13.8685 11.5676 14.1805Z" fill="#AEAEAE"/>
</g>
<defs>
<clipPath id="clip0_748_1460">
<rect width="15.8816" height="18.1504" fill="white" transform="translate(0.223633 0.000488281)"/>
</clipPath>
</defs>
</svg>
