<svg width="16" height="15" viewBox="0 0 16 15" fill="none" xmlns="http://www.w3.org/2000/svg">
<path d="M15.9958 7.48631C15.9958 7.97854 15.5791 8.36412 15.1068 8.36412H14.2179L14.2373 12.745C14.2373 12.8188 14.2318 12.8926 14.2234 12.9665V13.4067C14.2234 14.0111 13.7262 14.5006 13.1122 14.5006H12.6677C12.6372 14.5006 12.6066 14.5006 12.5761 14.4978C12.5372 14.5006 12.4983 14.5006 12.4594 14.5006H11.5565H10.8898C10.2759 14.5006 9.77861 14.0111 9.77861 13.4067V12.7504V11.0003C9.77861 10.5163 9.38135 10.1252 8.88965 10.1252H7.11172C6.62001 10.1252 6.22275 10.5163 6.22275 11.0003V12.7504V13.4067C6.22275 14.0111 5.72549 14.5006 5.11155 14.5006H4.44482H3.55864C3.51697 14.5006 3.4753 14.4978 3.43363 14.4951C3.40029 14.4978 3.36695 14.5006 3.33362 14.5006H2.88913C2.27519 14.5006 1.77793 14.0111 1.77793 13.4067V10.344C1.77793 10.3194 1.77793 10.292 1.78071 10.2674V8.36412H0.888965C0.388922 8.36412 0 7.98128 0 7.48631C0 7.2402 0.0833404 7.02143 0.277801 6.83001L7.40063 0.718158C7.59509 0.526736 7.81733 0.49939 8.01179 0.49939C8.20625 0.49939 8.42849 0.554082 8.59518 0.690812L15.6902 6.83001C15.9125 7.02143 16.0236 7.2402 15.9958 7.48631Z" fill="#CBCBCB"/>
</svg>
