<svg width="31" height="31" viewBox="0 0 31 31" fill="none" xmlns="http://www.w3.org/2000/svg">
<path d="M22.8007 8.94932H22.8132M9.69032 3.33057H22.1764C25.6244 3.33057 28.4195 6.12568 28.4195 9.57362V22.0597C28.4195 25.5077 25.6244 28.3028 22.1764 28.3028H9.69032C6.24238 28.3028 3.44727 25.5077 3.44727 22.0597V9.57362C3.44727 6.12568 6.24238 3.33057 9.69032 3.33057ZM20.9278 15.0301C21.0819 16.0692 20.9044 17.1305 20.4206 18.0629C19.9367 18.9954 19.1712 19.7516 18.2329 20.2239C17.2945 20.6962 16.2311 20.8606 15.1939 20.6937C14.1568 20.5268 13.1986 20.0371 12.4558 19.2943C11.713 18.5514 11.2233 17.5933 11.0564 16.5561C10.8895 15.5189 11.0539 14.4556 11.5262 13.5172C11.9985 12.5788 12.7546 11.8133 13.6871 11.3295C14.6196 10.8456 15.6809 10.6681 16.72 10.8222C17.78 10.9794 18.7613 11.4733 19.519 12.231C20.2767 12.9888 20.7706 13.9701 20.9278 15.0301Z" stroke="black" stroke-width="2.49722" stroke-linecap="round" stroke-linejoin="round"/>
</svg>
