<svg width="17" height="21" viewBox="0 0 17 21" fill="none" xmlns="http://www.w3.org/2000/svg">
<g clip-path="url(#clip0_1340_2774)">
<path d="M9.4875 20.3364C11.625 17.7398 16.5 11.4464 16.5 7.91144C16.5 3.62417 12.9167 0.145813 8.5 0.145813C4.08333 0.145813 0.5 3.62417 0.5 7.91144C0.5 11.4464 5.375 17.7398 7.5125 20.3364C8.025 20.9553 8.975 20.9553 9.4875 20.3364ZM8.5 5.3229C9.20724 5.3229 9.88552 5.59562 10.3856 6.08106C10.8857 6.56651 11.1667 7.22491 11.1667 7.91144C11.1667 8.59796 10.8857 9.25637 10.3856 9.74181C9.88552 10.2273 9.20724 10.5 8.5 10.5C7.79276 10.5 7.11448 10.2273 6.61438 9.74181C6.11428 9.25637 5.83333 8.59796 5.83333 7.91144C5.83333 7.22491 6.11428 6.56651 6.61438 6.08106C7.11448 5.59562 7.79276 5.3229 8.5 5.3229Z" fill="#CBCBCB"/>
</g>
<defs>
<clipPath id="clip0_1340_2774">
<rect width="16" height="20.7083" fill="white" transform="translate(0.5 0.145813)"/>
</clipPath>
</defs>
</svg>
